<mxfile host="app.diagrams.net" modified="2022-11-30T22:25:58.248Z" agent="5.0 (Windows NT 10.0; Win64; x64) AppleWebKit/537.36 (KHTML, like Gecko) Chrome/107.0.0.0 Safari/537.36" etag="zXX0037-cVqQ31LI_By1" version="20.6.0" type="github">
  <diagram id="C5RBs43oDa-KdzZeNtuy" name="Page-1">
    <mxGraphModel dx="1422" dy="754" grid="1" gridSize="10" guides="1" tooltips="1" connect="1" arrows="1" fold="1" page="1" pageScale="1" pageWidth="827" pageHeight="1169" math="0" shadow="0">
      <root>
        <mxCell id="WIyWlLk6GJQsqaUBKTNV-0" />
        <mxCell id="WIyWlLk6GJQsqaUBKTNV-1" parent="WIyWlLk6GJQsqaUBKTNV-0" />
        <mxCell id="v1USRtUHJUmaxtp3nPsQ-9" value="no_telp" style="ellipse;shape=doubleEllipse;margin=3;whiteSpace=wrap;html=1;align=center;" vertex="1" parent="WIyWlLk6GJQsqaUBKTNV-1">
          <mxGeometry x="300" y="80" width="100" height="40" as="geometry" />
        </mxCell>
        <mxCell id="v1USRtUHJUmaxtp3nPsQ-10" value="Penjual" style="whiteSpace=wrap;html=1;align=center;" vertex="1" parent="WIyWlLk6GJQsqaUBKTNV-1">
          <mxGeometry x="190" y="140" width="100" height="40" as="geometry" />
        </mxCell>
        <mxCell id="v1USRtUHJUmaxtp3nPsQ-11" value="email" style="ellipse;whiteSpace=wrap;html=1;align=center;" vertex="1" parent="WIyWlLk6GJQsqaUBKTNV-1">
          <mxGeometry x="190" y="50" width="100" height="40" as="geometry" />
        </mxCell>
        <mxCell id="v1USRtUHJUmaxtp3nPsQ-12" value="alamat" style="ellipse;whiteSpace=wrap;html=1;align=center;" vertex="1" parent="WIyWlLk6GJQsqaUBKTNV-1">
          <mxGeometry x="333.5" y="140" width="100" height="40" as="geometry" />
        </mxCell>
        <mxCell id="v1USRtUHJUmaxtp3nPsQ-13" value="nama_penjual" style="ellipse;whiteSpace=wrap;html=1;align=center;" vertex="1" parent="WIyWlLk6GJQsqaUBKTNV-1">
          <mxGeometry x="80" y="80" width="100" height="40" as="geometry" />
        </mxCell>
        <mxCell id="v1USRtUHJUmaxtp3nPsQ-14" value="&lt;u&gt;id alamat&lt;/u&gt;" style="ellipse;whiteSpace=wrap;html=1;align=center;" vertex="1" parent="WIyWlLk6GJQsqaUBKTNV-1">
          <mxGeometry x="50" y="140" width="100" height="40" as="geometry" />
        </mxCell>
        <mxCell id="v1USRtUHJUmaxtp3nPsQ-18" value="menjual" style="shape=rhombus;perimeter=rhombusPerimeter;whiteSpace=wrap;html=1;align=center;" vertex="1" parent="WIyWlLk6GJQsqaUBKTNV-1">
          <mxGeometry x="180" y="240" width="120" height="60" as="geometry" />
        </mxCell>
        <mxCell id="v1USRtUHJUmaxtp3nPsQ-19" value="" style="endArrow=none;html=1;rounded=0;entryX=0;entryY=0.5;entryDx=0;entryDy=0;" edge="1" parent="WIyWlLk6GJQsqaUBKTNV-1" target="v1USRtUHJUmaxtp3nPsQ-10">
          <mxGeometry relative="1" as="geometry">
            <mxPoint x="150" y="159.5" as="sourcePoint" />
            <mxPoint x="310" y="159.5" as="targetPoint" />
          </mxGeometry>
        </mxCell>
        <mxCell id="v1USRtUHJUmaxtp3nPsQ-20" value="" style="endArrow=none;html=1;rounded=0;entryX=0;entryY=0;entryDx=0;entryDy=0;exitX=1;exitY=1;exitDx=0;exitDy=0;" edge="1" parent="WIyWlLk6GJQsqaUBKTNV-1" source="v1USRtUHJUmaxtp3nPsQ-13" target="v1USRtUHJUmaxtp3nPsQ-10">
          <mxGeometry relative="1" as="geometry">
            <mxPoint x="170" y="120" as="sourcePoint" />
            <mxPoint x="210" y="120.5" as="targetPoint" />
          </mxGeometry>
        </mxCell>
        <mxCell id="v1USRtUHJUmaxtp3nPsQ-21" value="" style="endArrow=none;html=1;rounded=0;entryX=0.5;entryY=0;entryDx=0;entryDy=0;exitX=0.5;exitY=1;exitDx=0;exitDy=0;" edge="1" parent="WIyWlLk6GJQsqaUBKTNV-1" source="v1USRtUHJUmaxtp3nPsQ-11" target="v1USRtUHJUmaxtp3nPsQ-10">
          <mxGeometry relative="1" as="geometry">
            <mxPoint x="220" y="110" as="sourcePoint" />
            <mxPoint x="260" y="110.5" as="targetPoint" />
          </mxGeometry>
        </mxCell>
        <mxCell id="v1USRtUHJUmaxtp3nPsQ-22" value="" style="endArrow=none;html=1;rounded=0;entryX=0;entryY=1;entryDx=0;entryDy=0;exitX=1;exitY=0;exitDx=0;exitDy=0;" edge="1" parent="WIyWlLk6GJQsqaUBKTNV-1" source="v1USRtUHJUmaxtp3nPsQ-10" target="v1USRtUHJUmaxtp3nPsQ-9">
          <mxGeometry relative="1" as="geometry">
            <mxPoint x="280" y="130" as="sourcePoint" />
            <mxPoint x="320" y="130.5" as="targetPoint" />
          </mxGeometry>
        </mxCell>
        <mxCell id="v1USRtUHJUmaxtp3nPsQ-23" value="" style="endArrow=none;html=1;rounded=0;entryX=0;entryY=0.5;entryDx=0;entryDy=0;" edge="1" parent="WIyWlLk6GJQsqaUBKTNV-1" target="v1USRtUHJUmaxtp3nPsQ-12">
          <mxGeometry relative="1" as="geometry">
            <mxPoint x="290" y="159.5" as="sourcePoint" />
            <mxPoint x="330" y="160" as="targetPoint" />
          </mxGeometry>
        </mxCell>
        <mxCell id="v1USRtUHJUmaxtp3nPsQ-24" value="" style="endArrow=none;html=1;rounded=0;entryX=0.5;entryY=0;entryDx=0;entryDy=0;exitX=0.5;exitY=1;exitDx=0;exitDy=0;" edge="1" parent="WIyWlLk6GJQsqaUBKTNV-1" target="v1USRtUHJUmaxtp3nPsQ-18">
          <mxGeometry relative="1" as="geometry">
            <mxPoint x="239.5" y="180" as="sourcePoint" />
            <mxPoint x="239.5" y="230" as="targetPoint" />
          </mxGeometry>
        </mxCell>
        <mxCell id="v1USRtUHJUmaxtp3nPsQ-25" value="" style="endArrow=none;html=1;rounded=0;exitX=0.5;exitY=1;exitDx=0;exitDy=0;" edge="1" parent="WIyWlLk6GJQsqaUBKTNV-1">
          <mxGeometry relative="1" as="geometry">
            <mxPoint x="239.5" y="300" as="sourcePoint" />
            <mxPoint x="240" y="350" as="targetPoint" />
          </mxGeometry>
        </mxCell>
        <mxCell id="v1USRtUHJUmaxtp3nPsQ-26" value="Barang" style="whiteSpace=wrap;html=1;align=center;" vertex="1" parent="WIyWlLk6GJQsqaUBKTNV-1">
          <mxGeometry x="190" y="350" width="100" height="40" as="geometry" />
        </mxCell>
        <mxCell id="v1USRtUHJUmaxtp3nPsQ-27" value="" style="endArrow=none;html=1;rounded=0;entryX=0;entryY=0.5;entryDx=0;entryDy=0;" edge="1" parent="WIyWlLk6GJQsqaUBKTNV-1">
          <mxGeometry relative="1" as="geometry">
            <mxPoint x="290" y="369.5" as="sourcePoint" />
            <mxPoint x="330" y="370" as="targetPoint" />
          </mxGeometry>
        </mxCell>
        <mxCell id="v1USRtUHJUmaxtp3nPsQ-28" value="dibeli" style="shape=rhombus;perimeter=rhombusPerimeter;whiteSpace=wrap;html=1;align=center;" vertex="1" parent="WIyWlLk6GJQsqaUBKTNV-1">
          <mxGeometry x="323.5" y="340" width="120" height="60" as="geometry" />
        </mxCell>
        <mxCell id="v1USRtUHJUmaxtp3nPsQ-29" value="" style="endArrow=none;html=1;rounded=0;entryX=0;entryY=0.5;entryDx=0;entryDy=0;" edge="1" parent="WIyWlLk6GJQsqaUBKTNV-1">
          <mxGeometry relative="1" as="geometry">
            <mxPoint x="443.5" y="369.5" as="sourcePoint" />
            <mxPoint x="487" y="370" as="targetPoint" />
          </mxGeometry>
        </mxCell>
        <mxCell id="v1USRtUHJUmaxtp3nPsQ-30" value="Pembeli" style="whiteSpace=wrap;html=1;align=center;" vertex="1" parent="WIyWlLk6GJQsqaUBKTNV-1">
          <mxGeometry x="490" y="350" width="100" height="40" as="geometry" />
        </mxCell>
        <mxCell id="v1USRtUHJUmaxtp3nPsQ-31" value="stok&lt;span style=&quot;color: rgba(0, 0, 0, 0); font-family: monospace; font-size: 0px; text-align: start;&quot;&gt;%3CmxGraphModel%3E%3Croot%3E%3CmxCell%20id%3D%220%22%2F%3E%3CmxCell%20id%3D%221%22%20parent%3D%220%22%2F%3E%3CmxCell%20id%3D%222%22%20value%3D%22%22%20style%3D%22endArrow%3Dnone%3Bhtml%3D1%3Brounded%3D0%3BentryX%3D0%3BentryY%3D0%3BentryDx%3D0%3BentryDy%3D0%3BexitX%3D0.96%3BexitY%3D0.7%3BexitDx%3D0%3BexitDy%3D0%3BexitPerimeter%3D0%3B%22%20edge%3D%221%22%20parent%3D%221%22%3E%3CmxGeometry%20relative%3D%221%22%20as%3D%22geometry%22%3E%3CmxPoint%20x%3D%22136%22%20y%3D%22328%22%20as%3D%22sourcePoint%22%2F%3E%3CmxPoint%20x%3D%22190%22%20y%3D%22350%22%20as%3D%22targetPoint%22%2F%3E%3C%2FmxGeometry%3E%3C%2FmxCell%3E%3C%2Froot%3E%3C%2FmxGraphModel%3E&lt;/span&gt;&lt;span style=&quot;color: rgba(0, 0, 0, 0); font-family: monospace; font-size: 0px; text-align: start;&quot;&gt;%3CmxGraphModel%3E%3Croot%3E%3CmxCell%20id%3D%220%22%2F%3E%3CmxCell%20id%3D%221%22%20parent%3D%220%22%2F%3E%3CmxCell%20id%3D%222%22%20value%3D%22%22%20style%3D%22endArrow%3Dnone%3Bhtml%3D1%3Brounded%3D0%3BentryX%3D0%3BentryY%3D0%3BentryDx%3D0%3BentryDy%3D0%3BexitX%3D0.96%3BexitY%3D0.7%3BexitDx%3D0%3BexitDy%3D0%3BexitPerimeter%3D0%3B%22%20edge%3D%221%22%20parent%3D%221%22%3E%3CmxGeometry%20relative%3D%221%22%20as%3D%22geometry%22%3E%3CmxPoint%20x%3D%22136%22%20y%3D%22328%22%20as%3D%22sourcePoint%22%2F%3E%3CmxPoint%20x%3D%22190%22%20y%3D%22350%22%20as%3D%22targetPoint%22%2F%3E%3C%2FmxGeometry%3E%3C%2FmxCell%3E%3C%2Froot%3E%3C%2FmxGraphModel%3E&lt;/span&gt;" style="ellipse;whiteSpace=wrap;html=1;align=center;" vertex="1" parent="WIyWlLk6GJQsqaUBKTNV-1">
          <mxGeometry x="220" y="440" width="100" height="40" as="geometry" />
        </mxCell>
        <mxCell id="v1USRtUHJUmaxtp3nPsQ-32" value="harga" style="ellipse;whiteSpace=wrap;html=1;align=center;" vertex="1" parent="WIyWlLk6GJQsqaUBKTNV-1">
          <mxGeometry x="100" y="440" width="100" height="40" as="geometry" />
        </mxCell>
        <mxCell id="v1USRtUHJUmaxtp3nPsQ-33" value="nama_barang" style="ellipse;whiteSpace=wrap;html=1;align=center;" vertex="1" parent="WIyWlLk6GJQsqaUBKTNV-1">
          <mxGeometry x="40" y="370" width="100" height="40" as="geometry" />
        </mxCell>
        <mxCell id="v1USRtUHJUmaxtp3nPsQ-34" value="&lt;u&gt;id barang&lt;/u&gt;" style="ellipse;whiteSpace=wrap;html=1;align=center;" vertex="1" parent="WIyWlLk6GJQsqaUBKTNV-1">
          <mxGeometry x="40" y="300" width="100" height="40" as="geometry" />
        </mxCell>
        <mxCell id="v1USRtUHJUmaxtp3nPsQ-35" value="" style="endArrow=none;html=1;rounded=0;entryX=0;entryY=0;entryDx=0;entryDy=0;exitX=0.96;exitY=0.7;exitDx=0;exitDy=0;exitPerimeter=0;" edge="1" parent="WIyWlLk6GJQsqaUBKTNV-1" source="v1USRtUHJUmaxtp3nPsQ-34">
          <mxGeometry relative="1" as="geometry">
            <mxPoint x="165.35533905932743" y="324.14213562373095" as="sourcePoint" />
            <mxPoint x="190" y="350" as="targetPoint" />
          </mxGeometry>
        </mxCell>
        <mxCell id="v1USRtUHJUmaxtp3nPsQ-36" value="" style="endArrow=none;html=1;rounded=0;entryX=0.5;entryY=0;entryDx=0;entryDy=0;exitX=0.5;exitY=1;exitDx=0;exitDy=0;" edge="1" parent="WIyWlLk6GJQsqaUBKTNV-1" source="v1USRtUHJUmaxtp3nPsQ-26" target="v1USRtUHJUmaxtp3nPsQ-31">
          <mxGeometry relative="1" as="geometry">
            <mxPoint x="266" y="390" as="sourcePoint" />
            <mxPoint x="320" y="412" as="targetPoint" />
          </mxGeometry>
        </mxCell>
        <mxCell id="v1USRtUHJUmaxtp3nPsQ-37" value="" style="endArrow=none;html=1;rounded=0;entryX=0;entryY=0.75;entryDx=0;entryDy=0;exitX=1;exitY=0.5;exitDx=0;exitDy=0;" edge="1" parent="WIyWlLk6GJQsqaUBKTNV-1" source="v1USRtUHJUmaxtp3nPsQ-33" target="v1USRtUHJUmaxtp3nPsQ-26">
          <mxGeometry relative="1" as="geometry">
            <mxPoint x="136" y="368" as="sourcePoint" />
            <mxPoint x="190" y="390" as="targetPoint" />
          </mxGeometry>
        </mxCell>
        <mxCell id="v1USRtUHJUmaxtp3nPsQ-38" value="" style="endArrow=none;html=1;rounded=0;entryX=0.25;entryY=1;entryDx=0;entryDy=0;exitX=0.71;exitY=-0.025;exitDx=0;exitDy=0;exitPerimeter=0;" edge="1" parent="WIyWlLk6GJQsqaUBKTNV-1" source="v1USRtUHJUmaxtp3nPsQ-32" target="v1USRtUHJUmaxtp3nPsQ-26">
          <mxGeometry relative="1" as="geometry">
            <mxPoint x="166" y="400" as="sourcePoint" />
            <mxPoint x="220" y="422" as="targetPoint" />
          </mxGeometry>
        </mxCell>
        <mxCell id="v1USRtUHJUmaxtp3nPsQ-39" value="tanggal" style="ellipse;whiteSpace=wrap;html=1;align=center;" vertex="1" parent="WIyWlLk6GJQsqaUBKTNV-1">
          <mxGeometry x="370" y="430" width="100" height="40" as="geometry" />
        </mxCell>
        <mxCell id="v1USRtUHJUmaxtp3nPsQ-40" value="&lt;u&gt;id pembelian&lt;/u&gt;" style="ellipse;whiteSpace=wrap;html=1;align=center;" vertex="1" parent="WIyWlLk6GJQsqaUBKTNV-1">
          <mxGeometry x="370" y="270" width="100" height="40" as="geometry" />
        </mxCell>
        <mxCell id="v1USRtUHJUmaxtp3nPsQ-41" value="" style="endArrow=none;html=1;rounded=0;exitX=0.5;exitY=1;exitDx=0;exitDy=0;entryX=0.5;entryY=0;entryDx=0;entryDy=0;" edge="1" parent="WIyWlLk6GJQsqaUBKTNV-1" target="v1USRtUHJUmaxtp3nPsQ-39">
          <mxGeometry relative="1" as="geometry">
            <mxPoint x="400" y="390" as="sourcePoint" />
            <mxPoint x="440" y="420" as="targetPoint" />
          </mxGeometry>
        </mxCell>
        <mxCell id="v1USRtUHJUmaxtp3nPsQ-42" value="" style="endArrow=none;html=1;rounded=0;exitX=0.629;exitY=0.133;exitDx=0;exitDy=0;entryX=0.5;entryY=1;entryDx=0;entryDy=0;exitPerimeter=0;" edge="1" parent="WIyWlLk6GJQsqaUBKTNV-1" source="v1USRtUHJUmaxtp3nPsQ-28" target="v1USRtUHJUmaxtp3nPsQ-40">
          <mxGeometry relative="1" as="geometry">
            <mxPoint x="410" y="320" as="sourcePoint" />
            <mxPoint x="430" y="360" as="targetPoint" />
          </mxGeometry>
        </mxCell>
        <mxCell id="v1USRtUHJUmaxtp3nPsQ-43" value="&lt;u&gt;id pembeli&lt;/u&gt;" style="ellipse;whiteSpace=wrap;html=1;align=center;" vertex="1" parent="WIyWlLk6GJQsqaUBKTNV-1">
          <mxGeometry x="630" y="245" width="100" height="40" as="geometry" />
        </mxCell>
        <mxCell id="v1USRtUHJUmaxtp3nPsQ-44" value="nama_pembeli" style="ellipse;whiteSpace=wrap;html=1;align=center;" vertex="1" parent="WIyWlLk6GJQsqaUBKTNV-1">
          <mxGeometry x="630" y="315" width="100" height="40" as="geometry" />
        </mxCell>
        <mxCell id="v1USRtUHJUmaxtp3nPsQ-45" value="alamat" style="ellipse;whiteSpace=wrap;html=1;align=center;" vertex="1" parent="WIyWlLk6GJQsqaUBKTNV-1">
          <mxGeometry x="630" y="385" width="100" height="40" as="geometry" />
        </mxCell>
        <mxCell id="v1USRtUHJUmaxtp3nPsQ-46" value="email" style="ellipse;whiteSpace=wrap;html=1;align=center;" vertex="1" parent="WIyWlLk6GJQsqaUBKTNV-1">
          <mxGeometry x="630" y="455" width="100" height="40" as="geometry" />
        </mxCell>
        <mxCell id="v1USRtUHJUmaxtp3nPsQ-47" value="" style="endArrow=none;html=1;rounded=0;exitX=0.75;exitY=0;exitDx=0;exitDy=0;entryX=0;entryY=0.5;entryDx=0;entryDy=0;" edge="1" parent="WIyWlLk6GJQsqaUBKTNV-1" source="v1USRtUHJUmaxtp3nPsQ-30" target="v1USRtUHJUmaxtp3nPsQ-43">
          <mxGeometry relative="1" as="geometry">
            <mxPoint x="580" y="337.98" as="sourcePoint" />
            <mxPoint x="601.02" y="300" as="targetPoint" />
          </mxGeometry>
        </mxCell>
        <mxCell id="v1USRtUHJUmaxtp3nPsQ-48" value="" style="endArrow=none;html=1;rounded=0;exitX=0.75;exitY=1;exitDx=0;exitDy=0;entryX=0;entryY=0.5;entryDx=0;entryDy=0;" edge="1" parent="WIyWlLk6GJQsqaUBKTNV-1" source="v1USRtUHJUmaxtp3nPsQ-30" target="v1USRtUHJUmaxtp3nPsQ-46">
          <mxGeometry relative="1" as="geometry">
            <mxPoint x="550" y="480" as="sourcePoint" />
            <mxPoint x="615" y="395" as="targetPoint" />
          </mxGeometry>
        </mxCell>
        <mxCell id="v1USRtUHJUmaxtp3nPsQ-49" value="" style="endArrow=none;html=1;rounded=0;exitX=1;exitY=0.25;exitDx=0;exitDy=0;entryX=0;entryY=0.5;entryDx=0;entryDy=0;" edge="1" parent="WIyWlLk6GJQsqaUBKTNV-1" source="v1USRtUHJUmaxtp3nPsQ-30" target="v1USRtUHJUmaxtp3nPsQ-44">
          <mxGeometry relative="1" as="geometry">
            <mxPoint x="585" y="370" as="sourcePoint" />
            <mxPoint x="650" y="285" as="targetPoint" />
          </mxGeometry>
        </mxCell>
        <mxCell id="v1USRtUHJUmaxtp3nPsQ-50" value="" style="endArrow=none;html=1;rounded=0;entryX=0;entryY=0.5;entryDx=0;entryDy=0;exitX=1;exitY=0.75;exitDx=0;exitDy=0;" edge="1" parent="WIyWlLk6GJQsqaUBKTNV-1" source="v1USRtUHJUmaxtp3nPsQ-30" target="v1USRtUHJUmaxtp3nPsQ-45">
          <mxGeometry relative="1" as="geometry">
            <mxPoint x="600" y="370" as="sourcePoint" />
            <mxPoint x="660" y="295" as="targetPoint" />
          </mxGeometry>
        </mxCell>
      </root>
    </mxGraphModel>
  </diagram>
</mxfile>
